<svg width="41" height="41" viewBox="0 0 41 41" fill="none" xmlns="http://www.w3.org/2000/svg">
<path d="M28.3508 20.9019C31.5846 20.9019 34.3668 18.0144 34.3668 14.2541C34.3668 10.5392 31.57 7.78705 28.3508 7.78705C25.1323 7.78705 22.3348 10.5992 22.3348 14.2841C22.3348 18.0144 25.1169 20.9019 28.3508 20.9019ZM11.0393 21.2482C13.8368 21.2482 16.2741 18.7209 16.2741 15.457C16.2741 12.2238 13.8214 9.83192 11.0393 9.83192C8.24246 9.83192 5.77514 12.2839 5.79052 15.4877C5.79052 18.7209 8.22709 21.2482 11.04 21.2482M2.64743 34.8295H14.0776C12.5138 32.5584 14.4239 27.9861 17.6578 25.4895C15.9885 24.3767 13.8368 23.5494 11.0246 23.5494C4.2413 23.5486 0 28.5565 0 32.7231C0 34.0776 0.751911 34.8295 2.64743 34.8295ZM18.8908 34.8295H37.7961C40.1573 34.8295 41 34.1522 41 32.8285C41 28.9482 36.1415 23.594 28.3361 23.594C20.5454 23.594 15.6869 28.9482 15.6869 32.8293C15.6869 34.1522 16.5289 34.8295 18.8908 34.8295Z" fill="#4F4F4F"/>
</svg>
