<svg width="215" height="215" viewBox="0 0 215 215" fill="none" xmlns="http://www.w3.org/2000/svg">
<path fill-rule="evenodd" clip-rule="evenodd" d="M107.498 0.416901C121.561 0.416835 135.485 3.18657 148.477 8.56798C161.469 13.9494 173.274 21.8371 183.218 31.7807C193.162 41.7243 201.049 53.529 206.431 66.521C211.812 79.513 214.582 93.4377 214.582 107.5C214.582 166.641 166.639 214.584 107.498 214.584C48.3582 214.584 0.415161 166.641 0.415161 107.5C0.415161 48.36 48.3582 0.416901 107.498 0.416901ZM118.207 118.209H96.7902C70.2795 118.209 47.5195 134.265 37.7028 157.184C53.2352 178.965 78.7083 193.167 107.498 193.167C136.288 193.167 161.761 178.965 177.294 157.183C167.478 134.265 144.718 118.209 118.207 118.209ZM107.498 32.5419C89.7563 32.5419 75.3733 46.9249 75.3733 64.6669C75.3733 82.409 89.7563 96.7919 107.498 96.7919C125.24 96.7919 139.623 82.409 139.623 64.6669C139.623 46.9249 125.241 32.5419 107.498 32.5419Z" fill="#525252"/>
</svg>
