<svg width="245" height="245" viewBox="0 0 245 245" fill="none" xmlns="http://www.w3.org/2000/svg">
<path fill-rule="evenodd" clip-rule="evenodd" d="M122.647 0.439453C138.695 0.439378 154.586 3.60026 169.413 9.74162C184.24 15.883 197.712 24.8846 209.059 36.2324C220.407 47.5802 229.409 61.0521 235.55 75.8788C241.692 90.7054 244.853 106.597 244.853 122.645C244.853 190.137 190.139 244.851 122.647 244.851C55.155 244.851 0.441406 190.137 0.441406 122.645C0.441406 55.153 55.155 0.439453 122.647 0.439453ZM134.868 134.866H110.426C80.172 134.866 54.1977 153.189 42.9947 179.346C60.7207 204.202 89.7911 220.41 122.647 220.41C155.503 220.41 184.573 204.202 202.299 179.344C191.096 153.189 165.122 134.866 134.868 134.866ZM122.647 37.1011C102.399 37.1011 85.9851 53.5153 85.9851 73.7628C85.9851 94.0104 102.399 110.425 122.647 110.425C142.894 110.425 159.308 94.0104 159.308 73.7628C159.308 53.5153 142.895 37.1011 122.647 37.1011Z" fill="#262626"/>
</svg>
